<svg xmlns="http://www.w3.org/2000/svg" width="22" height="22" viewBox="0 0 22 22"><title>profile</title><g fill="#292e57" class="nc-icon-wrapper"><path id="Path_1041" data-name="Path 1041" d="M16 9a4 4 0 1 1-4-4 4 4 0 0 1 4 4zm-2 0a2 2 0 1 1-2-2 2 2 0 0 1 2 2z" transform="translate(-1 -1)" fill-rule="evenodd"></path><path id="Path_1042" data-name="Path 1042" d="M12 1a11 11 0 1 0 11 11A11 11 0 0 0 12 1zM3 12a8.961 8.961 0 0 0 1.908 5.542 9 9 0 0 1 14.249-.083A9 9 0 1 0 3 12zm9 9a8.963 8.963 0 0 1-5.672-2.012 7 7 0 0 1 11.426-.067A8.964 8.964 0 0 1 12 21z" transform="translate(-1 -1)" fill-rule="evenodd"></path></g></svg>