<svg xmlns="http://www.w3.org/2000/svg" width="18" height="19" viewBox="0 0 18 19"><title>trash</title><g fill="#292e57" class="nc-icon-wrapper"><path id="Path_1347" data-name="Path 1347" d="M17 5V4a2 2 0 0 0-2-2H9a2 2 0 0 0-2 2v1H4a1 1 0 0 0 0 2h1v11a3 3 0 0 0 3 3h8a3 3 0 0 0 3-3V7h1a1 1 0 0 0 0-2zm-2-1H9v1h6zm2 3H7v11a1 1 0 0 0 1 1h8a1 1 0 0 0 1-1z" transform="translate(-3 -2)" fill-rule="evenodd"></path><path id="Path_1348" data-name="Path 1348" d="M9 9h2v8H9z" transform="translate(-3 -2)"></path><path id="Path_1349" data-name="Path 1349" d="M13 9h2v8h-2z" transform="translate(-3 -2)"></path></g></svg>